<mxfile host="app.diagrams.net" agent="Mozilla/5.0 (Macintosh; Intel Mac OS X 10_15_7) AppleWebKit/537.36 (KHTML, like Gecko) Chrome/133.0.0.0 Safari/537.36" version="26.0.16">
  <diagram id="prtHgNgQTEPvFCAcTncT" name="Page-1">
    <mxGraphModel dx="836" dy="567" grid="1" gridSize="10" guides="1" tooltips="1" connect="1" arrows="1" fold="1" page="1" pageScale="1" pageWidth="827" pageHeight="1169" math="0" shadow="0">
      <root>
        <mxCell id="0" />
        <mxCell id="1" parent="0" />
        <mxCell id="dNxyNK7c78bLwvsdeMH5-11" value="Corpchart Quilagro Holdings LLC SPA" style="swimlane;html=1;startSize=20;horizontal=1;containerType=tree;glass=0;" parent="1" vertex="1">
          <mxGeometry x="40" y="30" width="740" height="860" as="geometry" />
        </mxCell>
        <mxCell id="2qUfi1K3x8kVQnl8f9iy-37" style="edgeStyle=orthogonalEdgeStyle;rounded=0;orthogonalLoop=1;jettySize=auto;html=1;exitX=0.5;exitY=1;exitDx=0;exitDy=0;entryX=0.5;entryY=0;entryDx=0;entryDy=0;" edge="1" parent="dNxyNK7c78bLwvsdeMH5-11" source="dNxyNK7c78bLwvsdeMH5-12" target="dNxyNK7c78bLwvsdeMH5-14">
          <mxGeometry relative="1" as="geometry" />
        </mxCell>
        <UserObject label="Junta Accionistas&lt;br&gt;&lt;font color=&quot;#808080&quot;&gt;&lt;i&gt;Shareholders&lt;/i&gt;&lt;/font&gt;&lt;br&gt;&lt;a href=&quot;mailto:%email%&quot;&gt;Email&lt;/a&gt;" name="Tessa Miller" position="CFO" location="Office 1" email="me@example.com" placeholders="1" link="https://www.draw.io" id="dNxyNK7c78bLwvsdeMH5-12">
          <mxCell style="label;image=https://cdn3.iconfinder.com/data/icons/user-avatars-1/512/users-3-128.png;whiteSpace=wrap;html=1;rounded=0;glass=0;treeMoving=1;treeFolding=1;" parent="dNxyNK7c78bLwvsdeMH5-11" vertex="1">
            <mxGeometry x="260" y="40" width="190" height="70" as="geometry" />
          </mxCell>
        </UserObject>
        <mxCell id="2qUfi1K3x8kVQnl8f9iy-35" style="edgeStyle=orthogonalEdgeStyle;rounded=0;orthogonalLoop=1;jettySize=auto;html=1;exitX=1;exitY=0.5;exitDx=0;exitDy=0;entryX=0;entryY=0.5;entryDx=0;entryDy=0;" edge="1" parent="dNxyNK7c78bLwvsdeMH5-11" source="dNxyNK7c78bLwvsdeMH5-14" target="dNxyNK7c78bLwvsdeMH5-16">
          <mxGeometry relative="1" as="geometry" />
        </mxCell>
        <UserObject label="Control Portafolio &amp;amp; Legal &amp;amp; Finanzas&lt;br&gt;&lt;i style=&quot;color: gray;&quot;&gt;Managing Partner Team&lt;/i&gt;&lt;br&gt;&lt;a href=&quot;mailto:%email%&quot;&gt;Email&lt;/a&gt;" name="Edward Morrison" position="Brand Manager" location="Office 2" email="me@example.com" placeholders="1" link="https://www.draw.io" id="dNxyNK7c78bLwvsdeMH5-14">
          <mxCell style="label;image=https://cdn3.iconfinder.com/data/icons/user-avatars-1/512/users-10-3-128.png;whiteSpace=wrap;html=1;rounded=0;glass=0;treeFolding=1;treeMoving=1;" parent="dNxyNK7c78bLwvsdeMH5-11" vertex="1">
            <mxGeometry x="170" y="170" width="180" height="80" as="geometry" />
          </mxCell>
        </UserObject>
        <mxCell id="dNxyNK7c78bLwvsdeMH5-15" value="" style="endArrow=blockThin;endFill=1;fontSize=11;edgeStyle=elbowEdgeStyle;elbow=vertical;rounded=0;" parent="dNxyNK7c78bLwvsdeMH5-11" source="dNxyNK7c78bLwvsdeMH5-12" target="dNxyNK7c78bLwvsdeMH5-16" edge="1">
          <mxGeometry relative="1" as="geometry">
            <Array as="points">
              <mxPoint x="380" y="150" />
            </Array>
          </mxGeometry>
        </mxCell>
        <mxCell id="2qUfi1K3x8kVQnl8f9iy-34" style="edgeStyle=orthogonalEdgeStyle;rounded=0;orthogonalLoop=1;jettySize=auto;html=1;exitX=0.5;exitY=1;exitDx=0;exitDy=0;entryX=0.5;entryY=0;entryDx=0;entryDy=0;" edge="1" parent="dNxyNK7c78bLwvsdeMH5-11" source="dNxyNK7c78bLwvsdeMH5-16" target="2qUfi1K3x8kVQnl8f9iy-4">
          <mxGeometry relative="1" as="geometry">
            <Array as="points">
              <mxPoint x="505" y="290" />
              <mxPoint x="600" y="290" />
            </Array>
          </mxGeometry>
        </mxCell>
        <mxCell id="2qUfi1K3x8kVQnl8f9iy-68" style="edgeStyle=orthogonalEdgeStyle;rounded=0;orthogonalLoop=1;jettySize=auto;html=1;exitX=0;exitY=0.75;exitDx=0;exitDy=0;" edge="1" parent="dNxyNK7c78bLwvsdeMH5-11" source="dNxyNK7c78bLwvsdeMH5-16">
          <mxGeometry relative="1" as="geometry">
            <mxPoint x="350" y="230" as="targetPoint" />
          </mxGeometry>
        </mxCell>
        <mxCell id="2qUfi1K3x8kVQnl8f9iy-69" style="edgeStyle=orthogonalEdgeStyle;rounded=0;orthogonalLoop=1;jettySize=auto;html=1;exitX=0.75;exitY=0;exitDx=0;exitDy=0;entryX=0.75;entryY=1;entryDx=0;entryDy=0;" edge="1" parent="dNxyNK7c78bLwvsdeMH5-11" source="dNxyNK7c78bLwvsdeMH5-16" target="dNxyNK7c78bLwvsdeMH5-12">
          <mxGeometry relative="1" as="geometry">
            <Array as="points">
              <mxPoint x="543" y="130" />
              <mxPoint x="403" y="130" />
            </Array>
          </mxGeometry>
        </mxCell>
        <UserObject label="Directorio&lt;div&gt;Integracion Vertical&lt;br&gt;&lt;i style=&quot;color: gray;&quot;&gt;Chair &amp;amp; CEO Martin&amp;nbsp;&amp;nbsp;&lt;/i&gt;&lt;br&gt;&lt;a href=&quot;mailto:%email%&quot;&gt;Email&lt;/a&gt;&lt;/div&gt;" name="Evan Valet" position="HR Director" location="Office 4" email="me@example.com" placeholders="1" link="https://www.draw.io" id="dNxyNK7c78bLwvsdeMH5-16">
          <mxCell style="label;image=https://cdn3.iconfinder.com/data/icons/user-avatars-1/512/users-9-2-128.png;whiteSpace=wrap;html=1;rounded=0;glass=0;treeFolding=1;treeMoving=1;" parent="dNxyNK7c78bLwvsdeMH5-11" vertex="1">
            <mxGeometry x="410" y="170" width="190" height="80" as="geometry" />
          </mxCell>
        </UserObject>
        <mxCell id="2qUfi1K3x8kVQnl8f9iy-11" style="edgeStyle=orthogonalEdgeStyle;rounded=0;orthogonalLoop=1;jettySize=auto;html=1;exitX=1;exitY=0.5;exitDx=0;exitDy=0;entryX=0;entryY=0.5;entryDx=0;entryDy=0;" edge="1" parent="dNxyNK7c78bLwvsdeMH5-11" source="2qUfi1K3x8kVQnl8f9iy-3" target="2qUfi1K3x8kVQnl8f9iy-4">
          <mxGeometry relative="1" as="geometry" />
        </mxCell>
        <mxCell id="2qUfi1K3x8kVQnl8f9iy-12" style="edgeStyle=orthogonalEdgeStyle;rounded=0;orthogonalLoop=1;jettySize=auto;html=1;exitX=0.5;exitY=1;exitDx=0;exitDy=0;entryX=0.5;entryY=0;entryDx=0;entryDy=0;" edge="1" parent="dNxyNK7c78bLwvsdeMH5-11" source="2qUfi1K3x8kVQnl8f9iy-3" target="2qUfi1K3x8kVQnl8f9iy-7">
          <mxGeometry relative="1" as="geometry" />
        </mxCell>
        <mxCell id="2qUfi1K3x8kVQnl8f9iy-13" style="edgeStyle=orthogonalEdgeStyle;rounded=0;orthogonalLoop=1;jettySize=auto;html=1;exitX=0.5;exitY=1;exitDx=0;exitDy=0;entryX=0.5;entryY=0;entryDx=0;entryDy=0;" edge="1" parent="dNxyNK7c78bLwvsdeMH5-11" source="2qUfi1K3x8kVQnl8f9iy-3" target="2qUfi1K3x8kVQnl8f9iy-6">
          <mxGeometry relative="1" as="geometry" />
        </mxCell>
        <mxCell id="2qUfi1K3x8kVQnl8f9iy-14" style="edgeStyle=orthogonalEdgeStyle;rounded=0;orthogonalLoop=1;jettySize=auto;html=1;exitX=0.5;exitY=1;exitDx=0;exitDy=0;entryX=0.5;entryY=0;entryDx=0;entryDy=0;" edge="1" parent="dNxyNK7c78bLwvsdeMH5-11" source="2qUfi1K3x8kVQnl8f9iy-3" target="2qUfi1K3x8kVQnl8f9iy-7">
          <mxGeometry relative="1" as="geometry" />
        </mxCell>
        <UserObject label="CEO (GG) G. Manager (Procen+MQ+Quilagro)&lt;br&gt;&lt;font color=&quot;#808080&quot;&gt;&lt;i&gt;Franklin&lt;/i&gt;&lt;/font&gt;&lt;br&gt;&lt;a href=&quot;mailto:me@example.com&quot;&gt;Email&lt;/a&gt;" name="Evan Valet" position="HR Director" location="Office 4" email="me@example.com" placeholders="1" link="https://www.draw.io" id="2qUfi1K3x8kVQnl8f9iy-3">
          <mxCell style="label;image=https://cdn3.iconfinder.com/data/icons/user-avatars-1/512/users-9-2-128.png;whiteSpace=wrap;html=1;rounded=0;glass=0;treeFolding=1;treeMoving=1;" vertex="1" parent="dNxyNK7c78bLwvsdeMH5-11">
            <mxGeometry x="260" y="310" width="190" height="80" as="geometry" />
          </mxCell>
        </UserObject>
        <mxCell id="2qUfi1K3x8kVQnl8f9iy-33" style="edgeStyle=orthogonalEdgeStyle;rounded=0;orthogonalLoop=1;jettySize=auto;html=1;entryX=0.5;entryY=0;entryDx=0;entryDy=0;" edge="1" parent="dNxyNK7c78bLwvsdeMH5-11" source="2qUfi1K3x8kVQnl8f9iy-4" target="2qUfi1K3x8kVQnl8f9iy-8">
          <mxGeometry relative="1" as="geometry" />
        </mxCell>
        <mxCell id="2qUfi1K3x8kVQnl8f9iy-50" style="edgeStyle=orthogonalEdgeStyle;rounded=0;orthogonalLoop=1;jettySize=auto;html=1;exitX=0;exitY=0.25;exitDx=0;exitDy=0;entryX=1;entryY=0.25;entryDx=0;entryDy=0;" edge="1" parent="dNxyNK7c78bLwvsdeMH5-11" source="2qUfi1K3x8kVQnl8f9iy-4" target="2qUfi1K3x8kVQnl8f9iy-3">
          <mxGeometry relative="1" as="geometry" />
        </mxCell>
        <UserObject label="CBO Gerencia Marketplace &amp;amp; Ventas Plataforma&lt;br&gt;&lt;i style=&quot;color: gray;&quot;&gt;System Admin?&lt;/i&gt;&lt;br&gt;&lt;a href=&quot;mailto:me@example.com&quot;&gt;Email&lt;/a&gt;" name="Alison Donovan" position="System Admin" location="Office 3" email="me@example.com" placeholders="1" link="https://www.draw.io" id="2qUfi1K3x8kVQnl8f9iy-4">
          <mxCell style="label;image=https://cdn3.iconfinder.com/data/icons/user-avatars-1/512/users-2-128.png;whiteSpace=wrap;html=1;rounded=0;glass=0;" vertex="1" parent="dNxyNK7c78bLwvsdeMH5-11">
            <mxGeometry x="490" y="310" width="220" height="80" as="geometry" />
          </mxCell>
        </UserObject>
        <mxCell id="2qUfi1K3x8kVQnl8f9iy-31" style="edgeStyle=orthogonalEdgeStyle;rounded=0;orthogonalLoop=1;jettySize=auto;html=1;exitX=0.5;exitY=1;exitDx=0;exitDy=0;entryX=0.5;entryY=0;entryDx=0;entryDy=0;" edge="1" parent="dNxyNK7c78bLwvsdeMH5-11" source="2qUfi1K3x8kVQnl8f9iy-6" target="2qUfi1K3x8kVQnl8f9iy-16">
          <mxGeometry relative="1" as="geometry" />
        </mxCell>
        <mxCell id="2qUfi1K3x8kVQnl8f9iy-62" style="edgeStyle=orthogonalEdgeStyle;rounded=0;orthogonalLoop=1;jettySize=auto;html=1;exitX=1;exitY=0.25;exitDx=0;exitDy=0;entryX=0;entryY=0.25;entryDx=0;entryDy=0;" edge="1" parent="dNxyNK7c78bLwvsdeMH5-11" source="2qUfi1K3x8kVQnl8f9iy-6" target="2qUfi1K3x8kVQnl8f9iy-7">
          <mxGeometry relative="1" as="geometry" />
        </mxCell>
        <UserObject label="COO Crop Ops &amp;amp; Production &amp;amp; I+D Manager (Contraparte)&lt;br&gt;&lt;i style=&quot;color: gray;&quot;&gt;Nombre?&lt;/i&gt;&lt;br&gt;&lt;a href=&quot;mailto:me@example.com&quot;&gt;Email&lt;/a&gt;" name="Edward Morrison" position="Brand Manager" location="Office 2" email="me@example.com" placeholders="1" link="https://www.draw.io" id="2qUfi1K3x8kVQnl8f9iy-6">
          <mxCell style="label;image=https://cdn3.iconfinder.com/data/icons/user-avatars-1/512/users-10-3-128.png;whiteSpace=wrap;html=1;rounded=0;glass=0;treeFolding=1;treeMoving=1;" vertex="1" parent="dNxyNK7c78bLwvsdeMH5-11">
            <mxGeometry x="30" y="440" width="190" height="80" as="geometry" />
          </mxCell>
        </UserObject>
        <mxCell id="2qUfi1K3x8kVQnl8f9iy-58" style="edgeStyle=orthogonalEdgeStyle;rounded=0;orthogonalLoop=1;jettySize=auto;html=1;exitX=0;exitY=0.5;exitDx=0;exitDy=0;entryX=1;entryY=0.5;entryDx=0;entryDy=0;" edge="1" parent="dNxyNK7c78bLwvsdeMH5-11" source="2qUfi1K3x8kVQnl8f9iy-7" target="2qUfi1K3x8kVQnl8f9iy-6">
          <mxGeometry relative="1" as="geometry" />
        </mxCell>
        <UserObject label="CTO Tecnologia (Máquinas &amp;amp; Activos)&lt;br&gt;&lt;font color=&quot;#808080&quot;&gt;&lt;i&gt;Nombre?&lt;/i&gt;&lt;/font&gt;&lt;br&gt;&lt;a href=&quot;mailto:me@example.com&quot;&gt;Email&lt;/a&gt;" name="Evan Valet" position="HR Director" location="Office 4" email="me@example.com" placeholders="1" link="https://www.draw.io" id="2qUfi1K3x8kVQnl8f9iy-7">
          <mxCell style="label;image=https://cdn3.iconfinder.com/data/icons/user-avatars-1/512/users-9-2-128.png;whiteSpace=wrap;html=1;rounded=0;glass=0;treeFolding=1;treeMoving=1;" vertex="1" parent="dNxyNK7c78bLwvsdeMH5-11">
            <mxGeometry x="260" y="440" width="190" height="80" as="geometry" />
          </mxCell>
        </UserObject>
        <mxCell id="2qUfi1K3x8kVQnl8f9iy-32" style="edgeStyle=orthogonalEdgeStyle;rounded=0;orthogonalLoop=1;jettySize=auto;html=1;exitX=0.5;exitY=1;exitDx=0;exitDy=0;entryX=0.5;entryY=0;entryDx=0;entryDy=0;" edge="1" parent="dNxyNK7c78bLwvsdeMH5-11" source="2qUfi1K3x8kVQnl8f9iy-8" target="2qUfi1K3x8kVQnl8f9iy-29">
          <mxGeometry relative="1" as="geometry" />
        </mxCell>
        <mxCell id="2qUfi1K3x8kVQnl8f9iy-56" style="edgeStyle=orthogonalEdgeStyle;rounded=0;orthogonalLoop=1;jettySize=auto;html=1;exitX=0;exitY=0.5;exitDx=0;exitDy=0;" edge="1" parent="dNxyNK7c78bLwvsdeMH5-11" source="2qUfi1K3x8kVQnl8f9iy-8">
          <mxGeometry relative="1" as="geometry">
            <mxPoint x="470" y="480.3684210526317" as="targetPoint" />
          </mxGeometry>
        </mxCell>
        <mxCell id="2qUfi1K3x8kVQnl8f9iy-57" style="edgeStyle=orthogonalEdgeStyle;rounded=0;orthogonalLoop=1;jettySize=auto;html=1;exitX=0;exitY=0.25;exitDx=0;exitDy=0;entryX=1;entryY=0.25;entryDx=0;entryDy=0;" edge="1" parent="dNxyNK7c78bLwvsdeMH5-11" source="2qUfi1K3x8kVQnl8f9iy-8" target="2qUfi1K3x8kVQnl8f9iy-7">
          <mxGeometry relative="1" as="geometry" />
        </mxCell>
        <mxCell id="2qUfi1K3x8kVQnl8f9iy-66" style="edgeStyle=orthogonalEdgeStyle;rounded=0;orthogonalLoop=1;jettySize=auto;html=1;exitX=0.25;exitY=0;exitDx=0;exitDy=0;entryX=0.25;entryY=1;entryDx=0;entryDy=0;" edge="1" parent="dNxyNK7c78bLwvsdeMH5-11" source="2qUfi1K3x8kVQnl8f9iy-8" target="2qUfi1K3x8kVQnl8f9iy-4">
          <mxGeometry relative="1" as="geometry" />
        </mxCell>
        <UserObject label="BDMDesarrollo Markerplace Ventas &amp;amp; Servicio al Cliente (post-venta)&lt;div&gt;&lt;i style=&quot;color: gray;&quot;&gt;Nombre?&lt;/i&gt;&lt;br&gt;&lt;a href=&quot;mailto:me@example.com&quot;&gt;Email&lt;/a&gt;&lt;/div&gt;" name="Alison Donovan" position="System Admin" location="Office 3" email="me@example.com" placeholders="1" link="https://www.draw.io" id="2qUfi1K3x8kVQnl8f9iy-8">
          <mxCell style="label;image=https://cdn3.iconfinder.com/data/icons/user-avatars-1/512/users-2-128.png;whiteSpace=wrap;html=1;rounded=0;glass=0;" vertex="1" parent="dNxyNK7c78bLwvsdeMH5-11">
            <mxGeometry x="490" y="440" width="220" height="80" as="geometry" />
          </mxCell>
        </UserObject>
        <mxCell id="2qUfi1K3x8kVQnl8f9iy-63" style="edgeStyle=orthogonalEdgeStyle;rounded=0;orthogonalLoop=1;jettySize=auto;html=1;exitX=0.75;exitY=0;exitDx=0;exitDy=0;entryX=0.75;entryY=1;entryDx=0;entryDy=0;" edge="1" parent="dNxyNK7c78bLwvsdeMH5-11" source="2qUfi1K3x8kVQnl8f9iy-16" target="2qUfi1K3x8kVQnl8f9iy-6">
          <mxGeometry relative="1" as="geometry" />
        </mxCell>
        <UserObject label="Logistica &amp;amp; Equipos Produccion Agricola&amp;nbsp; Alfa&lt;span style=&quot;background-color: transparent; color: light-dark(rgb(0, 0, 0), rgb(255, 255, 255));&quot;&gt;&amp;nbsp;&lt;/span&gt;&lt;div&gt;&lt;i style=&quot;color: gray;&quot;&gt;Nombre?&lt;/i&gt;&lt;br&gt;&lt;a href=&quot;mailto:me@example.com&quot;&gt;Email&lt;/a&gt;&lt;/div&gt;" name="Edward Morrison" position="Brand Manager" location="Office 2" email="me@example.com" placeholders="1" link="https://www.draw.io" id="2qUfi1K3x8kVQnl8f9iy-16">
          <mxCell style="label;image=https://cdn3.iconfinder.com/data/icons/user-avatars-1/512/users-10-3-128.png;whiteSpace=wrap;html=1;rounded=0;glass=0;treeFolding=1;treeMoving=1;" vertex="1" parent="dNxyNK7c78bLwvsdeMH5-11">
            <mxGeometry x="30" y="550" width="190" height="80" as="geometry" />
          </mxCell>
        </UserObject>
        <mxCell id="2qUfi1K3x8kVQnl8f9iy-54" style="edgeStyle=orthogonalEdgeStyle;rounded=0;orthogonalLoop=1;jettySize=auto;html=1;exitX=0.5;exitY=0;exitDx=0;exitDy=0;entryX=0.75;entryY=1;entryDx=0;entryDy=0;" edge="1" parent="dNxyNK7c78bLwvsdeMH5-11" source="2qUfi1K3x8kVQnl8f9iy-28" target="2qUfi1K3x8kVQnl8f9iy-3">
          <mxGeometry relative="1" as="geometry">
            <Array as="points">
              <mxPoint x="355" y="530" />
              <mxPoint x="470" y="530" />
              <mxPoint x="470" y="410" />
              <mxPoint x="403" y="410" />
            </Array>
          </mxGeometry>
        </mxCell>
        <mxCell id="2qUfi1K3x8kVQnl8f9iy-59" style="edgeStyle=orthogonalEdgeStyle;rounded=0;orthogonalLoop=1;jettySize=auto;html=1;exitX=0;exitY=0.5;exitDx=0;exitDy=0;" edge="1" parent="dNxyNK7c78bLwvsdeMH5-11" source="2qUfi1K3x8kVQnl8f9iy-28">
          <mxGeometry relative="1" as="geometry">
            <mxPoint x="220" y="589.8421052631579" as="targetPoint" />
          </mxGeometry>
        </mxCell>
        <mxCell id="2qUfi1K3x8kVQnl8f9iy-60" style="edgeStyle=orthogonalEdgeStyle;rounded=0;orthogonalLoop=1;jettySize=auto;html=1;exitX=1;exitY=0.5;exitDx=0;exitDy=0;entryX=0;entryY=0.5;entryDx=0;entryDy=0;" edge="1" parent="dNxyNK7c78bLwvsdeMH5-11" source="2qUfi1K3x8kVQnl8f9iy-28" target="2qUfi1K3x8kVQnl8f9iy-29">
          <mxGeometry relative="1" as="geometry" />
        </mxCell>
        <mxCell id="2qUfi1K3x8kVQnl8f9iy-64" style="edgeStyle=orthogonalEdgeStyle;rounded=0;orthogonalLoop=1;jettySize=auto;html=1;exitX=0.25;exitY=0;exitDx=0;exitDy=0;entryX=0.25;entryY=1;entryDx=0;entryDy=0;" edge="1" parent="dNxyNK7c78bLwvsdeMH5-11" source="2qUfi1K3x8kVQnl8f9iy-28" target="2qUfi1K3x8kVQnl8f9iy-7">
          <mxGeometry relative="1" as="geometry" />
        </mxCell>
        <UserObject label="PMO TI &amp;amp; Infrastructura Operador Temporal Alfa&lt;span style=&quot;background-color: transparent; color: light-dark(rgb(0, 0, 0), rgb(255, 255, 255));&quot;&gt;&amp;nbsp;&lt;/span&gt;&lt;div&gt;&lt;i style=&quot;color: gray;&quot;&gt;Nombre?&lt;/i&gt;&lt;br&gt;&lt;a href=&quot;mailto:me@example.com&quot;&gt;Email&lt;/a&gt;&lt;/div&gt;" name="Edward Morrison" position="Brand Manager" location="Office 2" email="me@example.com" placeholders="1" link="https://www.draw.io" id="2qUfi1K3x8kVQnl8f9iy-28">
          <mxCell style="label;image=https://cdn3.iconfinder.com/data/icons/user-avatars-1/512/users-10-3-128.png;whiteSpace=wrap;html=1;rounded=0;glass=0;treeFolding=1;treeMoving=1;" vertex="1" parent="dNxyNK7c78bLwvsdeMH5-11">
            <mxGeometry x="260" y="550" width="190" height="80" as="geometry" />
          </mxCell>
        </UserObject>
        <mxCell id="2qUfi1K3x8kVQnl8f9iy-48" style="edgeStyle=orthogonalEdgeStyle;rounded=0;orthogonalLoop=1;jettySize=auto;html=1;exitX=0.5;exitY=1;exitDx=0;exitDy=0;entryX=0.5;entryY=0;entryDx=0;entryDy=0;" edge="1" parent="dNxyNK7c78bLwvsdeMH5-11" source="2qUfi1K3x8kVQnl8f9iy-29" target="2qUfi1K3x8kVQnl8f9iy-47">
          <mxGeometry relative="1" as="geometry" />
        </mxCell>
        <mxCell id="2qUfi1K3x8kVQnl8f9iy-65" style="edgeStyle=orthogonalEdgeStyle;rounded=0;orthogonalLoop=1;jettySize=auto;html=1;exitX=0.25;exitY=0;exitDx=0;exitDy=0;entryX=0.25;entryY=1;entryDx=0;entryDy=0;" edge="1" parent="dNxyNK7c78bLwvsdeMH5-11" source="2qUfi1K3x8kVQnl8f9iy-29" target="2qUfi1K3x8kVQnl8f9iy-8">
          <mxGeometry relative="1" as="geometry" />
        </mxCell>
        <UserObject label="Marketplace Ventas, Fuerza de Venta y&amp;nbsp;&lt;div&gt;Post-Venta&lt;span style=&quot;background-color: transparent; color: light-dark(rgb(0, 0, 0), rgb(255, 255, 255));&quot;&gt;&amp;nbsp;&lt;/span&gt;&lt;div&gt;&lt;i style=&quot;color: gray;&quot;&gt;Nombre?&lt;/i&gt;&lt;br&gt;&lt;a href=&quot;mailto:me@example.com&quot;&gt;Email&lt;/a&gt;&lt;/div&gt;&lt;/div&gt;" name="Edward Morrison" position="Brand Manager" location="Office 2" email="me@example.com" placeholders="1" link="https://www.draw.io" id="2qUfi1K3x8kVQnl8f9iy-29">
          <mxCell style="label;image=https://cdn3.iconfinder.com/data/icons/user-avatars-1/512/users-10-3-128.png;whiteSpace=wrap;html=1;rounded=0;glass=0;treeFolding=1;treeMoving=1;" vertex="1" parent="dNxyNK7c78bLwvsdeMH5-11">
            <mxGeometry x="490" y="550" width="220" height="80" as="geometry" />
          </mxCell>
        </UserObject>
        <UserObject label="Distribución&amp;nbsp;&lt;div&gt;&amp;amp; Almacén Alfa&lt;span style=&quot;background-color: transparent; color: light-dark(rgb(0, 0, 0), rgb(255, 255, 255));&quot;&gt;&amp;nbsp;&lt;/span&gt;&lt;div&gt;&lt;i style=&quot;color: gray;&quot;&gt;Nombre?&lt;/i&gt;&lt;br&gt;&lt;a href=&quot;mailto:me@example.com&quot;&gt;Email&lt;/a&gt;&lt;/div&gt;&lt;/div&gt;" name="Edward Morrison" position="Brand Manager" location="Office 2" email="me@example.com" placeholders="1" link="https://www.draw.io" id="2qUfi1K3x8kVQnl8f9iy-39">
          <mxCell style="label;image=https://cdn3.iconfinder.com/data/icons/user-avatars-1/512/users-10-3-128.png;whiteSpace=wrap;html=1;rounded=0;glass=0;treeFolding=1;treeMoving=1;" vertex="1" parent="dNxyNK7c78bLwvsdeMH5-11">
            <mxGeometry x="30" y="670" width="190" height="80" as="geometry" />
          </mxCell>
        </UserObject>
        <mxCell id="2qUfi1K3x8kVQnl8f9iy-40" style="edgeStyle=orthogonalEdgeStyle;rounded=0;orthogonalLoop=1;jettySize=auto;html=1;entryX=0.5;entryY=0;entryDx=0;entryDy=0;" edge="1" parent="dNxyNK7c78bLwvsdeMH5-11" target="2qUfi1K3x8kVQnl8f9iy-39">
          <mxGeometry relative="1" as="geometry">
            <mxPoint x="125" y="640" as="sourcePoint" />
            <mxPoint x="125" y="550" as="targetPoint" />
          </mxGeometry>
        </mxCell>
        <mxCell id="2qUfi1K3x8kVQnl8f9iy-41" style="edgeStyle=orthogonalEdgeStyle;rounded=0;orthogonalLoop=1;jettySize=auto;html=1;exitX=0.5;exitY=1;exitDx=0;exitDy=0;entryX=0.5;entryY=0;entryDx=0;entryDy=0;" edge="1" target="2qUfi1K3x8kVQnl8f9iy-42" source="2qUfi1K3x8kVQnl8f9iy-16" parent="dNxyNK7c78bLwvsdeMH5-11">
          <mxGeometry relative="1" as="geometry">
            <mxPoint x="165" y="600" as="sourcePoint" />
          </mxGeometry>
        </mxCell>
        <UserObject label="Logistica &amp;amp; Equipos Produccion Agricola&amp;nbsp; Alfa&lt;span style=&quot;background-color: transparent; color: light-dark(rgb(0, 0, 0), rgb(255, 255, 255));&quot;&gt;&amp;nbsp;&lt;/span&gt;&lt;div&gt;&lt;i style=&quot;color: gray;&quot;&gt;Nombre?&lt;/i&gt;&lt;br&gt;&lt;a href=&quot;mailto:me@example.com&quot;&gt;Email&lt;/a&gt;&lt;/div&gt;" name="Edward Morrison" position="Brand Manager" location="Office 2" email="me@example.com" placeholders="1" link="https://www.draw.io" id="2qUfi1K3x8kVQnl8f9iy-42">
          <mxCell style="label;image=https://cdn3.iconfinder.com/data/icons/user-avatars-1/512/users-10-3-128.png;whiteSpace=wrap;html=1;rounded=0;glass=0;treeFolding=1;treeMoving=1;" vertex="1" parent="dNxyNK7c78bLwvsdeMH5-11">
            <mxGeometry x="30" y="670" width="190" height="80" as="geometry" />
          </mxCell>
        </UserObject>
        <UserObject label="DevOps AiOps (Contratistas)&lt;div&gt;&amp;nbsp;Alfa&lt;span style=&quot;background-color: transparent; color: light-dark(rgb(0, 0, 0), rgb(255, 255, 255));&quot;&gt;&amp;nbsp;&lt;/span&gt;&lt;div&gt;&lt;i style=&quot;color: gray;&quot;&gt;Nombre?&lt;/i&gt;&lt;br&gt;&lt;a href=&quot;mailto:me@example.com&quot;&gt;Email&lt;/a&gt;&lt;/div&gt;&lt;/div&gt;" name="Edward Morrison" position="Brand Manager" location="Office 2" email="me@example.com" placeholders="1" link="https://www.draw.io" id="2qUfi1K3x8kVQnl8f9iy-45">
          <mxCell style="label;image=https://cdn3.iconfinder.com/data/icons/user-avatars-1/512/users-10-3-128.png;whiteSpace=wrap;html=1;rounded=0;glass=0;treeFolding=1;treeMoving=1;" vertex="1" parent="dNxyNK7c78bLwvsdeMH5-11">
            <mxGeometry x="260" y="670" width="190" height="80" as="geometry" />
          </mxCell>
        </UserObject>
        <mxCell id="2qUfi1K3x8kVQnl8f9iy-46" style="edgeStyle=orthogonalEdgeStyle;rounded=0;orthogonalLoop=1;jettySize=auto;html=1;exitX=0.5;exitY=1;exitDx=0;exitDy=0;" edge="1" parent="dNxyNK7c78bLwvsdeMH5-11" source="2qUfi1K3x8kVQnl8f9iy-28" target="2qUfi1K3x8kVQnl8f9iy-45">
          <mxGeometry relative="1" as="geometry">
            <mxPoint x="355" y="520" as="sourcePoint" />
            <mxPoint x="355" y="550" as="targetPoint" />
          </mxGeometry>
        </mxCell>
        <UserObject label="Fuerza de Venta y&amp;nbsp;&lt;div&gt;Post-Venta&lt;span style=&quot;background-color: transparent; color: light-dark(rgb(0, 0, 0), rgb(255, 255, 255));&quot;&gt;&amp;nbsp;&lt;/span&gt;&lt;div&gt;&lt;i style=&quot;color: gray;&quot;&gt;Nombre?&lt;/i&gt;&lt;br&gt;&lt;a href=&quot;mailto:me@example.com&quot;&gt;Email&lt;/a&gt;&lt;/div&gt;&lt;/div&gt;" name="Edward Morrison" position="Brand Manager" location="Office 2" email="me@example.com" placeholders="1" link="https://www.draw.io" id="2qUfi1K3x8kVQnl8f9iy-47">
          <mxCell style="label;image=https://cdn3.iconfinder.com/data/icons/user-avatars-1/512/users-10-3-128.png;whiteSpace=wrap;html=1;rounded=0;glass=0;treeFolding=1;treeMoving=1;" vertex="1" parent="dNxyNK7c78bLwvsdeMH5-11">
            <mxGeometry x="490" y="670" width="220" height="80" as="geometry" />
          </mxCell>
        </UserObject>
        <mxCell id="2qUfi1K3x8kVQnl8f9iy-49" style="edgeStyle=orthogonalEdgeStyle;rounded=0;orthogonalLoop=1;jettySize=auto;html=1;exitX=0.5;exitY=1;exitDx=0;exitDy=0;entryX=0.52;entryY=-0.003;entryDx=0;entryDy=0;entryPerimeter=0;" edge="1" parent="dNxyNK7c78bLwvsdeMH5-11" source="dNxyNK7c78bLwvsdeMH5-16" target="2qUfi1K3x8kVQnl8f9iy-3">
          <mxGeometry relative="1" as="geometry">
            <Array as="points">
              <mxPoint x="505" y="290" />
              <mxPoint x="359" y="290" />
            </Array>
          </mxGeometry>
        </mxCell>
        <mxCell id="2qUfi1K3x8kVQnl8f9iy-61" style="edgeStyle=orthogonalEdgeStyle;rounded=0;orthogonalLoop=1;jettySize=auto;html=1;exitX=0.75;exitY=0;exitDx=0;exitDy=0;entryX=0.611;entryY=1.005;entryDx=0;entryDy=0;entryPerimeter=0;" edge="1" parent="dNxyNK7c78bLwvsdeMH5-11" source="2qUfi1K3x8kVQnl8f9iy-7" target="2qUfi1K3x8kVQnl8f9iy-3">
          <mxGeometry relative="1" as="geometry">
            <Array as="points">
              <mxPoint x="376" y="440" />
            </Array>
          </mxGeometry>
        </mxCell>
        <mxCell id="2qUfi1K3x8kVQnl8f9iy-67" style="edgeStyle=orthogonalEdgeStyle;rounded=0;orthogonalLoop=1;jettySize=auto;html=1;exitX=0.75;exitY=0;exitDx=0;exitDy=0;" edge="1" parent="dNxyNK7c78bLwvsdeMH5-11" source="2qUfi1K3x8kVQnl8f9iy-4">
          <mxGeometry relative="1" as="geometry">
            <mxPoint x="530" y="250" as="targetPoint" />
            <Array as="points">
              <mxPoint x="655" y="270" />
              <mxPoint x="529" y="270" />
              <mxPoint x="529" y="250" />
            </Array>
          </mxGeometry>
        </mxCell>
      </root>
    </mxGraphModel>
  </diagram>
</mxfile>
